# Blender 4.2.0
# www.blender.org
mtllib Chest.mtl
o ChestBubble
v -0.131245 -0.131245 0.131245
v -0.131245 0.131245 0.131245
v -0.131245 -0.131245 -0.131245
v -0.131245 0.131245 -0.131245
v 0.131245 -0.131245 0.131245
v 0.131245 0.131245 0.131245
v 0.131245 -0.131245 -0.131245
v 0.131245 0.131245 -0.131245
v -0.150943 -0.150943 -0.078155
v -0.160742 -0.160742 -0.000000
v -0.150943 -0.150943 0.078155
v -0.150943 -0.078155 0.150943
v -0.160742 -0.000000 0.160742
v -0.150943 0.078155 0.150943
v -0.150943 0.150943 0.078155
v -0.160742 0.160742 0.000000
v -0.150943 0.150943 -0.078155
v -0.150943 0.078155 -0.150943
v -0.160742 -0.000000 -0.160742
v -0.150943 -0.078155 -0.150943
v 0.078155 -0.150943 -0.150943
v 0.000000 -0.160742 -0.160742
v -0.078155 -0.150943 -0.150943
v -0.078155 0.150943 -0.150943
v -0.000000 0.160742 -0.160742
v 0.078155 0.150943 -0.150943
v 0.150943 0.078155 -0.150943
v 0.160742 -0.000000 -0.160742
v 0.150943 -0.078155 -0.150943
v 0.150943 -0.150943 0.078155
v 0.160742 -0.160742 0.000000
v 0.150943 -0.150943 -0.078155
v 0.150943 0.150943 -0.078155
v 0.160742 0.160742 0.000000
v 0.150943 0.150943 0.078155
v 0.150943 0.078155 0.150943
v 0.160742 -0.000000 0.160742
v 0.150943 -0.078155 0.150943
v -0.078155 -0.150943 0.150943
v -0.000000 -0.160742 0.160742
v 0.078155 -0.150943 0.150943
v 0.078155 0.150943 0.150943
v -0.000000 0.160742 0.160742
v -0.078155 0.150943 0.150943
v -0.193779 -0.084040 0.084040
v -0.209129 -0.000000 0.089111
v -0.193779 0.084040 0.084040
v -0.209129 -0.089111 -0.000000
v -0.227323 0.000000 0.000000
v -0.209129 0.089111 0.000000
v -0.193779 -0.084040 -0.084040
v -0.209129 0.000000 -0.089111
v -0.193779 0.084040 -0.084040
v -0.084040 -0.084040 -0.193779
v -0.089111 -0.000000 -0.209129
v -0.084040 0.084040 -0.193779
v 0.000000 -0.089111 -0.209129
v 0.000000 0.000000 -0.227323
v -0.000000 0.089111 -0.209129
v 0.084040 -0.084040 -0.193779
v 0.089111 0.000000 -0.209129
v 0.084040 0.084040 -0.193779
v 0.193779 -0.084040 -0.084040
v 0.209129 -0.000000 -0.089111
v 0.193779 0.084040 -0.084040
v 0.209129 -0.089111 0.000000
v 0.227323 0.000000 0.000000
v 0.209129 0.089111 -0.000000
v 0.193779 -0.084040 0.084040
v 0.209129 0.000000 0.089111
v 0.193779 0.084040 0.084040
v 0.084040 -0.084040 0.193779
v 0.089111 -0.000000 0.209129
v 0.084040 0.084040 0.193779
v -0.000000 -0.089111 0.209129
v -0.000000 0.000000 0.227323
v 0.000000 0.089111 0.209129
v -0.084040 -0.084040 0.193779
v -0.089111 0.000000 0.209129
v -0.084040 0.084040 0.193779
v -0.084040 -0.193779 -0.084040
v -0.000000 -0.209129 -0.089111
v 0.084040 -0.193779 -0.084040
v -0.089111 -0.209129 0.000000
v 0.000000 -0.227323 0.000000
v 0.089111 -0.209129 -0.000000
v -0.084040 -0.193779 0.084040
v 0.000000 -0.209129 0.089111
v 0.084040 -0.193779 0.084040
v 0.084040 0.193779 -0.084040
v 0.000000 0.209129 -0.089111
v -0.084040 0.193779 -0.084040
v 0.089111 0.209129 0.000000
v -0.000000 0.227323 0.000000
v -0.089111 0.209129 -0.000000
v 0.084040 0.193779 0.084040
v -0.000000 0.209129 0.089111
v -0.084040 0.193779 0.084040
vn 0.5774 0.5774 -0.5774
vn 0.5774 -0.5774 -0.5774
vn 0.5774 0.5774 0.5774
vn 0.5774 -0.5774 0.5774
vn -0.5774 0.5774 -0.5774
vn -0.5774 -0.5774 -0.5774
vn -0.5774 0.5774 0.5774
vn -0.5774 -0.5774 0.5774
vn 0.6684 0.6684 0.3265
vn 0.7071 0.7071 -0.0000
vn 0.6684 0.6684 -0.3265
vn 0.6684 0.3265 -0.6684
vn 0.7071 -0.0000 -0.7071
vn 0.6684 -0.3265 -0.6684
vn 0.6684 -0.6684 -0.3265
vn 0.7071 -0.7071 -0.0000
vn 0.6684 -0.6684 0.3265
vn 0.6684 -0.3265 0.6684
vn 0.7071 -0.0000 0.7071
vn 0.6684 0.3265 0.6684
vn -0.3265 0.6684 0.6684
vn -0.0000 0.7071 0.7071
vn 0.3265 0.6684 0.6684
vn 0.3265 -0.6684 0.6684
vn -0.0000 -0.7071 0.7071
vn -0.3265 -0.6684 0.6684
vn -0.6684 -0.3265 0.6684
vn -0.7071 -0.0000 0.7071
vn -0.6684 0.3265 0.6684
vn -0.6684 0.6684 -0.3265
vn -0.7071 0.7071 -0.0000
vn -0.6684 0.6684 0.3265
vn -0.6684 -0.6684 0.3265
vn -0.7071 -0.7071 -0.0000
vn -0.6684 -0.6684 -0.3265
vn -0.6684 -0.3265 -0.6684
vn -0.7071 -0.0000 -0.7071
vn -0.6684 0.3265 -0.6684
vn 0.3265 0.6684 -0.6684
vn -0.0000 0.7071 -0.7071
vn -0.3265 0.6684 -0.6684
vn -0.3265 -0.6684 -0.6684
vn -0.0000 -0.7071 -0.7071
vn 0.3265 -0.6684 -0.6684
vn 0.8646 0.3553 -0.3553
vn 0.9244 -0.0000 -0.3813
vn 0.8646 -0.3553 -0.3553
vn 0.9244 0.3813 -0.0000
vn 1.0000 -0.0000 -0.0000
vn 0.9244 -0.3813 -0.0000
vn 0.8646 0.3553 0.3553
vn 0.9244 -0.0000 0.3813
vn 0.8646 -0.3553 0.3553
vn 0.3553 0.3553 0.8646
vn 0.3813 -0.0000 0.9244
vn 0.3553 -0.3553 0.8646
vn -0.0000 0.3813 0.9244
vn -0.0000 -0.0000 1.0000
vn -0.0000 -0.3813 0.9244
vn -0.3553 0.3553 0.8646
vn -0.3813 -0.0000 0.9244
vn -0.3553 -0.3553 0.8646
vn -0.8646 0.3553 0.3553
vn -0.9244 -0.0000 0.3813
vn -0.8646 -0.3553 0.3553
vn -0.9244 0.3813 -0.0000
vn -1.0000 -0.0000 -0.0000
vn -0.9244 -0.3813 -0.0000
vn -0.8646 0.3553 -0.3553
vn -0.9244 -0.0000 -0.3813
vn -0.8646 -0.3553 -0.3553
vn -0.3553 0.3553 -0.8646
vn -0.3813 -0.0000 -0.9244
vn -0.3553 -0.3553 -0.8646
vn -0.0000 0.3813 -0.9244
vn -0.0000 -0.0000 -1.0000
vn -0.0000 -0.3813 -0.9244
vn 0.3553 0.3553 -0.8646
vn 0.3813 -0.0000 -0.9244
vn 0.3553 -0.3553 -0.8646
vn 0.3553 0.8646 0.3553
vn -0.0000 0.9244 0.3813
vn -0.3553 0.8646 0.3553
vn 0.3813 0.9244 -0.0000
vn -0.0000 1.0000 -0.0000
vn -0.3813 0.9244 -0.0000
vn 0.3553 0.8646 -0.3553
vn -0.0000 0.9244 -0.3813
vn -0.3553 0.8646 -0.3553
vn -0.3553 -0.8646 0.3553
vn -0.0000 -0.9244 0.3813
vn 0.3553 -0.8646 0.3553
vn -0.3813 -0.9244 -0.0000
vn -0.0000 -1.0000 -0.0000
vn 0.3813 -0.9244 -0.0000
vn -0.3553 -0.8646 -0.3553
vn -0.0000 -0.9244 -0.3813
vn 0.3553 -0.8646 -0.3553
vt 0.182429 0.734443
vt 0.182429 0.736665
vt 0.184652 0.736665
vt 0.184652 0.734443
vt 0.186874 0.736665
vt 0.186874 0.734443
vt 0.182429 0.738887
vt 0.184652 0.738887
vt 0.186874 0.738888
vt 0.180207 0.732220
vt 0.180207 0.734443
vt 0.182429 0.732220
vt 0.184652 0.732220
vt 0.186874 0.732220
vt 0.189097 0.734443
vt 0.189097 0.732220
vt 0.189097 0.736665
vt 0.189097 0.738888
vt 0.186874 0.741110
vt 0.189097 0.741110
vt 0.184652 0.741110
vt 0.182429 0.741110
vt 0.180207 0.738888
vt 0.180207 0.741110
vt 0.180207 0.736665
vt 0.182429 0.743333
vt 0.182429 0.745555
vt 0.184652 0.745555
vt 0.184652 0.743333
vt 0.186874 0.745555
vt 0.186874 0.743333
vt 0.182429 0.747778
vt 0.184652 0.747778
vt 0.186874 0.747778
vt 0.180207 0.743333
vt 0.189097 0.743333
vt 0.189097 0.745555
vt 0.189097 0.747778
vt 0.186874 0.750000
vt 0.189097 0.750000
vt 0.184652 0.750000
vt 0.182429 0.750000
vt 0.180207 0.747778
vt 0.180207 0.750000
vt 0.180207 0.745555
vt 0.182429 0.752223
vt 0.182429 0.754445
vt 0.184652 0.754445
vt 0.184652 0.752223
vt 0.186874 0.754445
vt 0.186874 0.752223
vt 0.182429 0.756667
vt 0.184652 0.756667
vt 0.186874 0.756667
vt 0.180207 0.752223
vt 0.189097 0.752223
vt 0.189097 0.754445
vt 0.189097 0.756667
vt 0.186874 0.758890
vt 0.189097 0.758890
vt 0.184652 0.758890
vt 0.182429 0.758890
vt 0.180207 0.756667
vt 0.180207 0.758890
vt 0.180207 0.754445
vt 0.182429 0.761113
vt 0.182429 0.763335
vt 0.184652 0.763335
vt 0.184652 0.761113
vt 0.186874 0.763335
vt 0.186874 0.761113
vt 0.182429 0.765558
vt 0.184652 0.765558
vt 0.186874 0.765558
vt 0.180207 0.761113
vt 0.189097 0.761113
vt 0.189097 0.763335
vt 0.189097 0.765558
vt 0.186874 0.767780
vt 0.189097 0.767780
vt 0.184652 0.767780
vt 0.182429 0.767780
vt 0.180207 0.765558
vt 0.180207 0.767780
vt 0.180207 0.763335
vt 0.173539 0.752223
vt 0.173539 0.754445
vt 0.175762 0.754445
vt 0.175762 0.752223
vt 0.177984 0.754445
vt 0.177984 0.752223
vt 0.173539 0.756667
vt 0.175762 0.756667
vt 0.177984 0.756667
vt 0.171317 0.750000
vt 0.171317 0.752223
vt 0.173539 0.750000
vt 0.175762 0.750000
vt 0.177984 0.750000
vt 0.177984 0.758890
vt 0.175762 0.758890
vt 0.173539 0.758890
vt 0.171317 0.756667
vt 0.171317 0.758890
vt 0.171317 0.754445
vt 0.191319 0.752223
vt 0.191319 0.754445
vt 0.193542 0.754445
vt 0.193542 0.752223
vt 0.195764 0.754445
vt 0.195764 0.752223
vt 0.191319 0.756667
vt 0.193542 0.756667
vt 0.195764 0.756667
vt 0.191319 0.750000
vt 0.193542 0.750000
vt 0.195764 0.750000
vt 0.197987 0.752223
vt 0.197987 0.750000
vt 0.197987 0.754445
vt 0.197987 0.756667
vt 0.195764 0.758890
vt 0.197987 0.758890
vt 0.193542 0.758890
vt 0.191319 0.758890
s 1
usemtl UIBubbles
f 45/1/45 48/2/48 49/3/49 46/4/46
f 46/4/46 49/3/49 50/5/50 47/6/47
f 48/2/48 51/7/51 52/8/52 49/3/49
f 49/3/49 52/8/52 53/9/53 50/5/50
f 1/10/1 11/11/11 45/1/45 12/12/12
f 12/12/12 45/1/45 46/4/46 13/13/13
f 13/13/13 46/4/46 47/6/47 14/14/14
f 14/14/14 47/6/47 15/15/15 2/16/2
f 47/6/47 50/5/50 16/17/16 15/15/15
f 50/5/50 53/9/53 17/18/17 16/17/16
f 53/9/53 18/19/18 4/20/4 17/18/17
f 52/8/52 19/21/19 18/19/18 53/9/53
f 51/7/51 20/22/20 19/21/19 52/8/52
f 9/23/9 3/24/3 20/22/20 51/7/51
f 10/25/10 9/23/9 51/7/51 48/2/48
f 11/11/11 10/25/10 48/2/48 45/1/45
f 54/26/54 57/27/57 58/28/58 55/29/55
f 55/29/55 58/28/58 59/30/59 56/31/56
f 57/27/57 60/32/60 61/33/61 58/28/58
f 58/28/58 61/33/61 62/34/62 59/30/59
f 3/24/3 23/35/23 54/26/54 20/22/20
f 20/22/20 54/26/54 55/29/55 19/21/19
f 19/21/19 55/29/55 56/31/56 18/19/18
f 18/19/18 56/31/56 24/36/24 4/20/4
f 56/31/56 59/30/59 25/37/25 24/36/24
f 59/30/59 62/34/62 26/38/26 25/37/25
f 62/34/62 27/39/27 8/40/8 26/38/26
f 61/33/61 28/41/28 27/39/27 62/34/62
f 60/32/60 29/42/29 28/41/28 61/33/61
f 21/43/21 7/44/7 29/42/29 60/32/60
f 22/45/22 21/43/21 60/32/60 57/27/57
f 23/35/23 22/45/22 57/27/57 54/26/54
f 63/46/63 66/47/66 67/48/67 64/49/64
f 64/49/64 67/48/67 68/50/68 65/51/65
f 66/47/66 69/52/69 70/53/70 67/48/67
f 67/48/67 70/53/70 71/54/71 68/50/68
f 7/44/7 32/55/32 63/46/63 29/42/29
f 29/42/29 63/46/63 64/49/64 28/41/28
f 28/41/28 64/49/64 65/51/65 27/39/27
f 27/39/27 65/51/65 33/56/33 8/40/8
f 65/51/65 68/50/68 34/57/34 33/56/33
f 68/50/68 71/54/71 35/58/35 34/57/34
f 71/54/71 36/59/36 6/60/6 35/58/35
f 70/53/70 37/61/37 36/59/36 71/54/71
f 69/52/69 38/62/38 37/61/37 70/53/70
f 30/63/30 5/64/5 38/62/38 69/52/69
f 31/65/31 30/63/30 69/52/69 66/47/66
f 32/55/32 31/65/31 66/47/66 63/46/63
f 72/66/72 75/67/75 76/68/76 73/69/73
f 73/69/73 76/68/76 77/70/77 74/71/74
f 75/67/75 78/72/78 79/73/79 76/68/76
f 76/68/76 79/73/79 80/74/80 77/70/77
f 5/64/5 41/75/41 72/66/72 38/62/38
f 38/62/38 72/66/72 73/69/73 37/61/37
f 37/61/37 73/69/73 74/71/74 36/59/36
f 36/59/36 74/71/74 42/76/42 6/60/6
f 74/71/74 77/70/77 43/77/43 42/76/42
f 77/70/77 80/74/80 44/78/44 43/77/43
f 80/74/80 14/79/14 2/80/2 44/78/44
f 79/73/79 13/81/13 14/79/14 80/74/80
f 78/72/78 12/82/12 13/81/13 79/73/79
f 39/83/39 1/84/1 12/82/12 78/72/78
f 40/85/40 39/83/39 78/72/78 75/67/75
f 41/75/41 40/85/40 75/67/75 72/66/72
f 81/86/81 84/87/84 85/88/85 82/89/82
f 82/89/82 85/88/85 86/90/86 83/91/83
f 84/87/84 87/92/87 88/93/88 85/88/85
f 85/88/85 88/93/88 89/94/89 86/90/86
f 3/95/3 9/96/9 81/86/81 23/97/23
f 23/97/23 81/86/81 82/89/82 22/98/22
f 22/98/22 82/89/82 83/91/83 21/99/21
f 21/99/21 83/91/83 32/55/32 7/44/7
f 83/91/83 86/90/86 31/65/31 32/55/32
f 86/90/86 89/94/89 30/63/30 31/65/31
f 89/94/89 41/100/41 5/64/5 30/63/30
f 88/93/88 40/101/40 41/100/41 89/94/89
f 87/92/87 39/102/39 40/101/40 88/93/88
f 11/103/11 1/104/1 39/102/39 87/92/87
f 10/105/10 11/103/11 87/92/87 84/87/84
f 9/96/9 10/105/10 84/87/84 81/86/81
f 90/106/90 93/107/93 94/108/94 91/109/91
f 91/109/91 94/108/94 95/110/95 92/111/92
f 93/107/93 96/112/96 97/113/97 94/108/94
f 94/108/94 97/113/97 98/114/98 95/110/95
f 8/40/8 33/56/33 90/106/90 26/115/26
f 26/115/26 90/106/90 91/109/91 25/116/25
f 25/116/25 91/109/91 92/111/92 24/117/24
f 24/117/24 92/111/92 17/118/17 4/119/4
f 92/111/92 95/110/95 16/120/16 17/118/17
f 95/110/95 98/114/98 15/121/15 16/120/16
f 98/114/98 44/122/44 2/123/2 15/121/15
f 97/113/97 43/124/43 44/122/44 98/114/98
f 96/112/96 42/125/42 43/124/43 97/113/97
f 35/58/35 6/60/6 42/125/42 96/112/96
f 34/57/34 35/58/35 96/112/96 93/107/93
f 33/56/33 34/57/34 93/107/93 90/106/90
o ChestIcon
v -0.109787 -0.092679 0.082475
v -0.109787 0.023145 0.082475
v -0.109787 -0.092679 -0.082475
v -0.109787 0.023145 -0.082475
v 0.109787 -0.092679 0.082475
v 0.109787 0.023145 0.082475
v 0.109787 -0.092679 -0.082475
v 0.109787 0.023145 -0.082475
v -0.109787 0.058055 0.062250
v -0.109787 0.058055 -0.062250
v 0.109787 0.058055 -0.062250
v 0.109787 0.058055 0.062250
v -0.109787 0.076237 0.034625
v -0.109787 0.076237 -0.034625
v 0.109787 0.076237 -0.034625
v -0.109787 -0.092679 0.000000
v -0.109787 0.040600 0.000000
v 0.109787 -0.092679 0.000000
v 0.109787 0.040600 0.000000
v 0.118832 -0.024813 0.098817
v -0.118832 -0.024813 0.098817
v 0.109787 0.082532 0.000000
v 0.076021 -0.092679 -0.082475
v -0.076021 -0.092679 -0.082475
v -0.076021 0.023145 -0.082475
v 0.076021 0.023145 -0.082475
v -0.076021 -0.092679 0.082475
v 0.076021 -0.092679 0.082475
v 0.076021 0.023145 0.082475
v -0.076021 0.023145 0.082475
v -0.076021 0.058055 -0.062250
v 0.076021 0.058055 -0.062250
v 0.076021 0.058055 0.062250
v -0.076021 0.058055 0.062250
v -0.076021 0.076237 -0.034625
v 0.076021 0.076237 -0.034625
v 0.076021 0.076237 0.034625
v -0.076021 0.076237 0.034625
v -0.076021 0.082532 0.000000
v 0.076021 0.082532 0.000000
v 0.076021 -0.092679 0.000000
v -0.076021 -0.092679 0.000000
v -0.109787 -0.103355 0.000000
v -0.109787 -0.102932 0.090177
v -0.109787 0.027822 0.092786
v -0.109787 0.027822 -0.092786
v -0.109787 -0.102932 -0.090177
v -0.076021 -0.102932 -0.090177
v 0.076021 0.027822 -0.092786
v 0.109787 0.027822 -0.092786
v 0.109787 -0.102932 -0.090177
v 0.109787 -0.103355 0.000000
v 0.109787 0.027822 0.092786
v 0.109787 -0.102932 0.090177
v 0.076021 -0.102932 0.090177
v -0.076021 0.027822 0.092786
v 0.076021 0.069270 -0.069155
v 0.109787 0.069270 -0.069155
v -0.076021 0.069270 0.069155
v -0.109787 0.069270 0.069155
v -0.109787 0.069270 -0.069155
v 0.109787 0.069270 0.069155
v -0.109787 0.097032 0.000000
v -0.109787 0.090100 -0.037818
v 0.076021 0.090100 -0.037818
v 0.109787 0.090100 -0.037818
v 0.109787 0.097032 0.000000
v 0.109787 0.090100 0.037818
v -0.076021 0.090100 0.037818
v -0.109787 0.090100 0.037818
v 0.076021 0.097032 0.000000
v -0.076021 -0.103355 0.000000
v 0.076021 -0.102932 -0.090177
v -0.076021 0.027822 -0.092786
v -0.076021 -0.102932 0.090177
v 0.076021 0.027822 0.092786
v -0.076021 0.069270 -0.069155
v 0.076021 0.069270 0.069155
v -0.076021 0.090100 -0.037818
v 0.076021 0.090100 0.037818
v -0.076021 0.097032 0.000000
v 0.076021 -0.103355 0.000000
v 0.118832 0.021351 0.098817
v -0.118832 0.021351 0.098817
v -0.118832 0.021351 -0.099092
v -0.118832 -0.024813 -0.099092
v 0.118832 0.021351 -0.099092
v 0.118832 -0.024813 -0.099092
v 0.029105 -0.030864 0.107439
v -0.029105 -0.030864 0.107439
v 0.029105 0.027402 0.107439
v -0.029105 0.027402 0.107439
v -0.029105 0.027402 0.068304
v -0.029105 -0.030864 0.068304
v 0.029105 0.027402 0.068304
v 0.029105 -0.030864 0.068304
v 0.109787 0.076237 0.034625
v -0.109787 0.082532 0.000000
vn -1.0000 -0.0000 -0.0000
vn 1.0000 -0.0000 -0.0000
vn -0.0000 -1.0000 -0.0000
vn -0.0000 0.9259 -0.3778
vn -0.0000 1.0000 -0.0000
vn -0.0000 0.6757 0.7372
vn -0.0000 0.9259 0.3778
vn -0.0000 0.5013 -0.8653
vn -0.0000 0.6757 -0.7372
vn -0.0000 0.5013 0.8653
vn -0.0000 -0.0000 1.0000
vn -0.0000 -0.0000 -1.0000
vn -0.0000 -0.0199 -0.9998
vn -0.0000 -0.0199 0.9998
vn -0.0000 -1.0000 0.0047
vn -0.0000 0.6714 -0.7411
vn -0.0000 0.9247 -0.3807
vn -0.0000 0.4953 0.8687
vn -0.0000 0.6714 0.7411
vn -0.0000 0.4953 -0.8687
vn -0.0000 0.9247 0.3807
vn -0.0000 -1.0000 -0.0047
vt 0.149639 0.879048
vt 0.150187 0.899744
vt 0.133013 0.897904
vt 0.132356 0.879671
vt 0.060518 0.888688
vt 0.060518 0.860197
vt 0.051840 0.860197
vt 0.051840 0.888688
vt 0.150730 0.877636
vt 0.150926 0.899300
vt 0.132991 0.897062
vt 0.132636 0.877972
vt 0.024042 0.876332
vt 0.024042 0.904219
vt 0.032536 0.904219
vt 0.032536 0.876332
vt 0.023748 0.939676
vt 0.023748 0.970558
vt 0.031966 0.970558
vt 0.031966 0.939676
vt 0.167256 0.896995
vt 0.163045 0.902475
vt 0.060315 0.895074
vt 0.060315 0.866462
vt 0.051601 0.866462
vt 0.051601 0.895073
vt 0.045110 0.930125
vt 0.045154 0.915892
vt 0.046489 0.914566
vt 0.046494 0.930126
vt 0.060315 0.969145
vt 0.051601 0.969145
vt 0.168835 0.896736
vt 0.164329 0.902392
vt 0.061344 0.960905
vt 0.061344 0.929527
vt 0.052851 0.929527
vt 0.052851 0.960905
vt 0.158246 0.905254
vt 0.150979 0.905742
vt 0.157281 0.905310
vt 0.150345 0.905898
vt 0.059842 0.910951
vt 0.059842 0.879298
vt 0.051623 0.879298
vt 0.051623 0.910951
vt 0.137506 0.903148
vt 0.143408 0.905671
vt 0.137596 0.902631
vt 0.143725 0.905377
vt 0.060518 0.962448
vt 0.051840 0.962448
vt 0.061344 0.904219
vt 0.052851 0.904219
vt 0.168835 0.877636
vt 0.166937 0.878746
vt 0.022044 0.895074
vt 0.022044 0.969145
vt 0.030758 0.969145
vt 0.030758 0.895074
vt 0.132471 0.873179
vt 0.166736 0.873179
vt 0.166736 0.897921
vt 0.132471 0.897921
vt 0.053258 0.931724
vt 0.053214 0.945957
vt 0.051879 0.947284
vt 0.051875 0.931724
vt 0.165779 0.913327
vt 0.131515 0.913327
vt 0.131515 0.902843
vt 0.165779 0.902843
vt 0.059842 0.797352
vt 0.051623 0.797352
vt 0.131515 0.883114
vt 0.165779 0.883114
vt 0.165779 0.892359
vt 0.131515 0.892359
vt 0.023748 0.910951
vt 0.031966 0.910951
vt 0.023748 0.797352
vt 0.023748 0.879298
vt 0.031966 0.879298
vt 0.031966 0.797352
vt 0.165779 0.932507
vt 0.131515 0.932507
vt 0.131515 0.922572
vt 0.165779 0.922572
vt 0.059842 0.939676
vt 0.051623 0.939676
vt 0.131515 0.873179
vt 0.165779 0.873179
vt 0.053215 0.917490
vt 0.051880 0.916163
vt 0.022044 0.807235
vt 0.022044 0.840497
vt 0.030759 0.840497
vt 0.030759 0.807235
vt 0.166736 0.922663
vt 0.132471 0.922663
vt 0.061344 0.876332
vt 0.061344 0.804135
vt 0.052851 0.804135
vt 0.052851 0.876332
vt 0.171270 0.805799
vt 0.171270 0.924952
vt 0.135682 0.924952
vt 0.135682 0.805799
vt 0.024042 0.929527
vt 0.032536 0.929527
vt 0.168015 0.807640
vt 0.168015 0.926345
vt 0.132077 0.926346
vt 0.132077 0.807640
vt 0.031085 0.888688
vt 0.031085 0.962448
vt 0.050867 0.930127
vt 0.050873 0.914566
vt 0.030759 0.866462
vt 0.051601 0.840497
vt 0.051623 0.970558
vt 0.051601 0.807235
vt 0.050872 0.945687
vt 0.046488 0.945687
vt 0.047495 0.947284
vt 0.047501 0.931723
vt 0.031085 0.834341
vt 0.051840 0.834341
vt 0.051840 0.801219
vt 0.031085 0.801219
vt 0.032536 0.960905
vt 0.031085 0.860197
vt 0.047497 0.916163
vt 0.032536 0.804135
vt 0.022408 0.860197
vt 0.022408 0.888688
vt 0.022044 0.866462
vt 0.022408 0.962448
vt 0.060315 0.840497
vt 0.060315 0.807235
vt 0.045153 0.944360
vt 0.059842 0.970558
vt 0.022408 0.801219
vt 0.022408 0.834341
vt 0.024042 0.960905
vt 0.060518 0.834341
vt 0.024042 0.804135
vt 0.046160 0.945957
vt 0.046117 0.931722
vt 0.046162 0.917489
vt 0.052251 0.930127
vt 0.052207 0.944360
vt 0.052208 0.915893
vt 0.060518 0.801219
vt 0.073654 0.800159
vt 0.109422 0.800159
vt 0.109422 0.984306
vt 0.073654 0.984306
vt 0.078172 0.965379
vt 0.078172 0.809783
vt 0.114988 0.809783
vt 0.114988 0.965379
vt 0.109341 0.974033
vt 0.109341 0.800768
vt 0.078979 0.800768
vt 0.078979 0.974033
vt 0.041902 0.982861
vt 0.041902 0.961561
vt 0.022687 0.961561
vt 0.022687 0.982861
vt 0.058567 0.956672
vt 0.058567 0.935372
vt 0.039351 0.935372
vt 0.039351 0.956672
vt 0.080607 0.963933
vt 0.080607 0.800300
vt 0.112986 0.800300
vt 0.112986 0.963933
vt 0.181922 0.796152
vt 0.181922 0.842269
vt 0.227995 0.842269
vt 0.227995 0.796152
vt 0.109292 0.917329
vt 0.089209 0.917329
vt 0.089209 0.937430
vt 0.109292 0.937430
vt 0.075675 0.815605
vt 0.093647 0.815605
vt 0.093647 0.795503
vt 0.075675 0.795503
vt 0.092163 0.822723
vt 0.082367 0.845990
vt 0.108366 0.856936
vt 0.118162 0.833669
vt 0.090126 0.970724
vt 0.078654 0.970724
vt 0.078654 0.983544
vt 0.090126 0.983544
vt 0.093795 0.866664
vt 0.076813 0.884996
vt 0.097317 0.903991
vt 0.114300 0.885659
s 1
usemtl UIBubbles
f 114/126/99 115/127/99 102/128/99 101/129/99
f 124/130/99 130/131/99 155/132/99 147/133/99
f 116/134/100 117/135/100 104/136/100 103/137/100
f 104/138/100 110/139/100 160/140/100 151/141/100
f 136/142/100 137/143/100 179/144/100 167/145/100
f 115/127/99 100/146/99 107/147/99
f 102/148/99 108/149/99 159/150/99 144/151/99
f 116/152/100 103/153/100 152/154/100 150/155/100
f 101/156/99 102/148/99 144/151/99 145/157/99
f 117/135/100 106/158/100 109/159/100
f 138/160/99 135/161/99 178/162/99 169/163/99
f 117/135/100 109/159/100 113/164/100 120/165/100
f 115/127/99 107/147/99 111/166/99 196/167/99
f 107/168/99 100/169/99 143/170/99 158/171/99
f 108/172/99 115/127/99 196/167/99 112/173/99
f 110/174/100 117/135/100 120/165/100 195/175/100
f 121/176/99 124/130/99 147/133/99 171/177/99
f 104/136/100 117/135/100 110/174/100
f 102/128/99 115/127/99 108/172/99
f 135/161/99 131/178/99 176/179/99 178/162/99
f 105/180/100 106/158/100 117/135/100 116/134/100
f 99/181/99 100/146/99 115/127/99 114/126/99
f 123/182/100 122/183/100 146/184/100 172/185/100
f 122/186/101 121/187/101 139/188/101 140/189/101
f 114/190/99 101/191/99 145/192/99 141/193/99
f 134/194/102 133/195/102 137/196/103 138/197/103
f 100/169/99 99/198/99 142/199/99 143/170/99
f 132/200/104 131/201/104 135/202/105 136/203/105
f 132/204/100 136/142/100 167/145/100 157/205/100
f 138/197/103 137/196/103 136/203/105 135/202/105
f 125/206/100 128/207/100 154/208/100 173/209/100
f 124/210/106 123/211/106 129/212/107 130/213/107
f 111/214/99 107/168/99 158/171/99 168/215/99
f 128/216/108 127/217/108 131/201/104 132/200/104
f 99/218/99 114/190/99 141/193/99 142/219/99
f 130/213/107 129/212/107 133/195/102 134/194/102
f 137/220/100 133/221/100 177/222/100 179/223/100
f 140/189/101 139/188/101 126/224/101 125/225/101
f 127/226/99 126/227/99 153/228/99 174/229/99
f 126/230/109 127/231/109 128/232/109 125/233/109
f 110/139/100 195/234/100 166/235/100 160/140/100
f 122/236/110 123/237/110 124/238/110 121/239/110
f 171/177/111 147/133/111 148/240/111 149/241/111
f 173/209/112 154/208/112 143/170/112 142/199/112
f 180/242/101 150/155/101 152/154/113 153/243/113
f 175/244/114 159/150/114 162/245/115 177/222/115
f 174/229/116 151/141/116 160/140/117 176/179/117
f 172/185/118 144/151/118 159/150/114 175/244/114
f 179/144/103 161/246/103 168/215/119 167/145/119
f 176/179/117 160/140/117 166/235/119 178/162/119
f 177/222/115 162/245/115 161/247/103 179/223/103
f 171/248/120 149/249/120 150/155/101 180/242/101
f 145/192/120 146/250/120 170/251/101 141/193/101
f 164/252/115 163/253/115 169/254/103 165/255/103
f 158/171/117 157/205/117 167/145/119 168/215/119
f 165/256/103 169/163/103 178/162/119 166/235/119
f 148/240/118 147/133/118 155/132/114 156/257/114
f 143/170/116 154/208/116 157/205/117 158/171/117
f 156/257/114 155/132/114 163/253/115 164/252/115
f 141/193/101 170/251/101 173/258/113 142/219/113
f 152/259/112 151/141/112 174/229/112 153/228/112
f 145/157/111 144/151/111 172/185/111 146/184/111
f 109/260/100 106/261/100 148/240/100 156/257/100
f 129/262/100 123/182/100 172/185/100 175/244/100
f 106/261/100 105/263/100 149/241/100 148/240/100
f 112/264/99 196/265/99 161/247/99 162/245/99
f 128/207/100 132/204/100 157/205/100 154/208/100
f 105/266/100 116/152/100 150/155/100 149/249/100
f 196/267/99 111/214/99 168/215/99 161/246/99
f 131/178/99 127/226/99 174/229/99 176/179/99
f 120/268/100 113/269/100 164/252/100 165/255/100
f 195/234/100 120/270/100 165/256/100 166/235/100
f 130/131/99 134/271/99 163/253/99 155/132/99
f 103/272/100 104/138/100 151/141/100 152/259/100
f 133/221/100 129/262/100 175/244/100 177/222/100
f 122/273/100 140/274/100 170/251/100 146/250/100
f 108/149/99 112/264/99 162/245/99 159/150/99
f 140/274/100 125/275/100 173/258/100 170/251/100
f 139/276/99 121/277/99 171/248/99 180/242/99
f 113/269/100 109/260/100 156/257/100 164/252/100
f 126/278/99 139/276/99 180/242/99 153/243/99
f 134/271/99 138/279/99 169/254/99 163/253/99
f 118/280/109 181/281/109 182/282/109 119/283/109
f 186/284/110 184/285/110 183/286/110 185/287/110
f 182/288/99 183/289/99 184/290/99 119/291/99
f 119/292/101 184/293/101 186/294/101 118/295/101
f 181/296/103 185/297/103 183/298/103 182/299/103
f 118/300/100 186/301/100 185/302/100 181/303/100
f 187/304/109 189/305/109 190/306/109 188/307/109
f 194/308/110 192/309/110 191/310/110 193/311/110
f 190/312/99 191/313/99 192/314/99 188/315/99
f 188/316/101 192/317/101 194/318/101 187/319/101
f 189/320/103 193/321/103 191/322/103 190/323/103
f 187/324/100 194/325/100 193/326/100 189/327/100
