# Blender 4.2.0
# www.blender.org
mtllib knife.mtl
o Knife
v -0.098817 1.684210 0.066714
v 0.098817 1.684210 0.066714
v -0.098817 2.541364 -1.215389
v 0.098817 2.541364 -1.215389
v -0.098817 1.344302 -0.183552
v 0.098817 1.344302 -0.183552
v -0.098817 2.407115 -1.314234
v 0.098817 2.407115 -1.314234
v -0.098817 2.409203 -0.917960
v -0.098817 2.216938 -0.656829
v 0.098817 2.216938 -0.656829
v 0.098817 2.409203 -0.917960
v -0.098817 1.970078 -0.838586
v -0.098817 2.162343 -1.099718
v 0.098817 2.162343 -1.099718
v 0.098817 1.970078 -0.838586
v 0.098817 2.553931 -1.114527
v -0.098817 2.307071 -1.296285
v -0.098817 2.553931 -1.114527
v 0.098817 2.307071 -1.296285
v -0.098817 1.789547 -0.076354
v 0.098817 1.542687 -0.258111
v 0.098817 1.789547 -0.076354
v -0.098817 1.542687 -0.258111
v -0.098817 1.736879 -0.004820
v 0.098817 1.736879 -0.004820
v 0.098817 1.480530 -0.186381
v 0.098817 1.513643 -0.218664
v 0.098817 1.496142 -0.182069
v -0.098817 1.513643 -0.218664
v -0.098817 1.480530 -0.186381
v -0.098817 1.496142 -0.182069
v 0.079938 0.987106 1.018653
v 0.079938 1.681361 0.070583
v 0.079938 0.606012 1.342453
v 0.079938 0.418606 1.417355
v 0.079938 0.798638 1.208598
v 0.079938 0.243098 1.439650
v 0.079938 0.175987 1.433785
v 0.079938 1.356040 -0.168943
v -0.079938 0.987106 1.018653
v -0.079938 1.681361 0.070583
v -0.079938 0.606012 1.342453
v -0.079938 0.418606 1.417355
v -0.079938 0.798638 1.208598
v -0.079938 0.243098 1.439650
v -0.079938 0.175987 1.433785
v -0.079938 1.356040 -0.168943
v -0.079938 0.627247 0.820892
v 0.079938 0.624345 0.824833
v -0.038841 0.026108 1.397704
v -0.038841 0.512829 0.736648
v -0.038841 1.241622 -0.253187
v 0.038841 0.026108 1.397704
v 0.038841 1.241622 -0.253187
v 0.038841 0.509927 0.740589
v 0.099866 2.383587 -0.981671
v 0.099866 2.367283 -0.946886
v 0.099866 2.385339 -1.020047
v 0.099866 2.372271 -1.056172
v 0.099866 2.346374 -1.084546
v 0.099866 2.311589 -1.100850
v 0.099866 2.273214 -1.102602
v 0.099866 2.237089 -1.089534
v 0.099866 2.208714 -1.063637
v 0.099866 2.192410 -1.028853
v 0.099866 2.190659 -0.990477
v 0.099866 2.203726 -0.954352
v 0.099866 2.229623 -0.925977
v 0.099866 2.264408 -0.909673
v 0.099866 2.302783 -0.907922
v 0.099866 2.338908 -0.920989
v -0.100537 2.383587 -0.981671
v -0.100537 2.367283 -0.946886
v -0.100537 2.385339 -1.020047
v -0.100537 2.372271 -1.056172
v -0.100537 2.346374 -1.084546
v -0.100537 2.311589 -1.100850
v -0.100537 2.273214 -1.102602
v -0.100537 2.237089 -1.089534
v -0.100537 2.208714 -1.063637
v -0.100537 2.192410 -1.028852
v -0.100537 2.190659 -0.990477
v -0.100537 2.203726 -0.954352
v -0.100537 2.229623 -0.925977
v -0.100537 2.264408 -0.909673
v -0.100537 2.302783 -0.907922
v -0.100537 2.338908 -0.920989
v 0.099866 2.154970 -0.671167
v 0.099866 2.138666 -0.636382
v 0.099866 2.156721 -0.709542
v 0.099866 2.143654 -0.745667
v 0.099866 2.117757 -0.774042
v 0.099866 2.082972 -0.790346
v 0.099866 2.044596 -0.792098
v 0.099866 2.008471 -0.779030
v 0.099866 1.980097 -0.753133
v 0.099866 1.963793 -0.718348
v 0.099866 1.962041 -0.679973
v 0.099866 1.975109 -0.643848
v 0.099866 2.001006 -0.615473
v 0.099866 2.035790 -0.599169
v 0.099866 2.074166 -0.597417
v 0.099866 2.110291 -0.610485
v -0.100537 2.154970 -0.671167
v -0.100537 2.138666 -0.636382
v -0.100537 2.156721 -0.709542
v -0.100537 2.143654 -0.745667
v -0.100537 2.117757 -0.774042
v -0.100537 2.082972 -0.790346
v -0.100537 2.044596 -0.792098
v -0.100537 2.008471 -0.779030
v -0.100537 1.980097 -0.753133
v -0.100537 1.963793 -0.718348
v -0.100537 1.962041 -0.679973
v -0.100537 1.975109 -0.643848
v -0.100537 2.001006 -0.615473
v -0.100537 2.035790 -0.599169
v -0.100537 2.074166 -0.597417
v -0.100537 2.110291 -0.610485
vn -0.6325 0.7494 0.1956
vn 0.6325 0.7494 0.1956
vn 0.6281 0.6714 -0.3934
vn -0.6281 0.6714 -0.3934
vn 0.6281 0.1763 -0.7579
vn -0.6281 0.1763 -0.7579
vn 0.7071 -0.5694 -0.4192
vn 0.7071 0.5694 0.4192
vn 1.0000 -0.0000 -0.0000
vn 0.7259 -0.5187 -0.4516
vn -0.5439 -0.7999 -0.2535
vn 0.5439 -0.7999 -0.2535
vn 0.5774 0.1226 0.8072
vn -0.5774 0.1226 0.8072
vn -0.7071 -0.5694 -0.4192
vn -0.7259 -0.5187 -0.4516
vn 0.6325 -0.4094 -0.6576
vn -0.6325 -0.4094 -0.6576
vn -0.7071 0.5694 0.4192
vn -1.0000 -0.0000 -0.0000
vn -0.7998 -0.2319 -0.5536
vn 0.7998 -0.2319 -0.5536
vn 0.6872 0.4670 0.5564
vn 0.6825 0.3464 0.6436
vn 0.6797 0.1838 0.7101
vn 0.6839 0.0143 0.7294
vn 0.7363 -0.2235 0.6387
vn 0.9901 -0.1130 -0.0832
vn 0.6907 0.5499 0.4696
vn -0.6872 0.4670 0.5564
vn -0.6907 0.5499 0.4696
vn -0.9901 -0.1130 -0.0832
vn -0.7363 -0.2235 0.6387
vn -0.6839 0.0143 0.7294
vn -0.6797 0.1838 0.7101
vn -0.6825 0.3464 0.6436
vn -0.5775 0.8070 -0.1236
vn -0.7288 0.3181 -0.6063
vn 0.5775 0.8070 -0.1236
vn 0.7288 0.3181 -0.6063
vn -0.4832 -0.8305 0.2771
vn 0.4832 -0.8305 0.2771
vn 0.6009 -0.6437 -0.4739
vn 0.4836 -0.1660 -0.8594
vn -0.6009 -0.6437 -0.4739
vn -0.4836 -0.1660 -0.8594
vt 0.810859 0.951209
vt 0.819101 0.951209
vt 0.819101 0.951924
vt 0.810859 0.951924
vt 0.819101 0.960166
vt 0.810859 0.960166
vt 0.819101 0.967497
vt 0.827343 0.967497
vt 0.827343 0.967953
vt 0.819306 0.967953
vt 0.819101 0.967748
vt 0.810859 0.968409
vt 0.819101 0.968409
vt 0.819101 0.976651
vt 0.810859 0.976651
vt 0.810859 0.967497
vt 0.810859 0.967748
vt 0.819101 0.960882
vt 0.827343 0.960882
vt 0.827343 0.962134
vt 0.819101 0.962134
vt 0.827343 0.963798
vt 0.819101 0.963798
vt 0.802617 0.960882
vt 0.810859 0.960882
vt 0.810859 0.962134
vt 0.802617 0.962134
vt 0.810859 0.963798
vt 0.802617 0.963798
vt 0.810859 0.944594
vt 0.819101 0.944594
vt 0.819101 0.948293
vt 0.810859 0.948293
vt 0.819101 0.949957
vt 0.810859 0.949957
vt 0.802617 0.960166
vt 0.827343 0.960166
vt 0.810859 0.944138
vt 0.819101 0.944138
vt 0.802617 0.967497
vt 0.810859 0.943682
vt 0.819101 0.943682
vt 0.810655 0.967953
vt 0.802617 0.967953
vt 0.810859 0.967982
vt 0.802617 0.968409
vt 0.819101 0.967982
vt 0.819101 0.967948
vt 0.827343 0.968409
vt 0.485670 0.951837
vt 0.484648 0.946598
vt 0.485415 0.941892
vt 0.487783 0.937899
vt 0.491767 0.934106
vt 0.503497 0.952396
vt 0.488365 0.957295
vt 0.485963 0.947480
vt 0.488614 0.953017
vt 0.503615 0.948147
vt 0.492003 0.929529
vt 0.488071 0.933365
vt 0.485730 0.937405
vt 0.484965 0.942171
vt 0.503219 0.972653
vt 0.517115 0.969791
vt 0.503167 0.976612
vt 0.517224 0.973800
vt 0.393846 0.938025
vt 0.394225 0.932282
vt 0.396008 0.933190
vt 0.395840 0.935983
vt 0.426342 0.989847
vt 0.409243 0.962579
vt 0.410959 0.960751
vt 0.427759 0.988271
vt 0.409408 0.957286
vt 0.411067 0.958243
vt 0.427673 0.985871
vt 0.426184 0.984912
vt 0.347682 0.970450
vt 0.340930 0.970450
vt 0.334178 0.970450
vt 0.328454 0.970450
vt 0.324630 0.970450
vt 0.323287 0.970450
vt 0.353406 0.970450
vt 0.357230 0.970450
vt 0.358573 0.970450
s 1
usemtl Material
f 19/1/1 17/2/2 4/3/3 3/4/4
f 3/4/4 4/3/3 8/5/5 7/6/6
f 22/7/7 23/8/8 26/9/8 29/10/9 28/11/10
f 5/12/11 6/13/12 2/14/13 1/15/14
f 24/16/15 22/7/7 28/11/10 30/17/16
f 20/18/17 17/19/2 12/20/8 15/21/7
f 15/21/7 12/20/8 11/22/8 16/23/7
f 19/24/1 18/25/18 14/26/15 9/27/19
f 9/27/19 14/26/15 13/28/15 10/29/19
f 18/25/18 20/18/17 15/21/7 14/26/15
f 14/26/15 15/21/7 16/23/7 13/28/15
f 21/30/19 23/31/8 11/32/8 10/33/19
f 10/33/19 11/32/8 12/34/8 9/35/19
f 7/6/6 8/5/5 20/18/17 18/25/18
f 3/36/4 7/6/6 18/25/18 19/24/1
f 8/5/5 4/37/3 17/19/2 20/18/17
f 9/35/19 12/34/8 17/2/2 19/1/1
f 25/38/19 26/39/8 23/31/8 21/30/19
f 16/23/7 11/22/8 23/8/8 22/7/7
f 10/29/19 13/28/15 24/16/15 21/40/19
f 13/28/15 16/23/7 22/7/7 24/16/15
f 1/41/14 2/42/13 26/39/8 25/38/19
f 21/40/19 24/16/15 30/17/16 32/43/20 25/44/19
f 25/44/19 32/43/20 31/45/21 5/12/11 1/46/14
f 31/45/21 27/47/22 6/13/12 5/12/11
f 27/47/22 28/48/10 29/10/9
f 30/17/16 31/45/21 32/43/20
f 27/47/22 31/45/21 30/17/16 28/11/10
f 27/47/22 29/10/9 26/9/8 2/49/13 6/13/12
f 37/50/23 35/51/24 36/52/25 38/53/26 39/54/27 50/55/28 33/56/29
f 45/57/30 41/58/31 49/59/32 47/60/33 46/61/34 44/62/35 43/63/36
f 37/50/23 33/56/29 41/58/31 45/57/30
f 36/52/25 35/51/24 43/63/36 44/62/35
f 41/58/31 42/64/37 48/65/38 49/59/32
f 35/51/24 37/50/23 45/57/30 43/63/36
f 38/53/26 36/52/25 44/62/35 46/61/34
f 39/54/27 38/53/26 46/61/34 47/60/33
f 33/56/29 34/66/39 42/64/37 41/58/31
f 34/66/39 40/67/40 48/65/38 42/64/37
f 50/55/28 40/67/40 34/66/39 33/56/29
f 39/68/27 47/69/33 51/70/41 54/71/42
f 40/72/40 50/73/28 56/74/43 55/75/44
f 47/69/33 49/76/32 52/77/45 51/70/41
f 50/73/28 39/68/27 54/71/42 56/74/43
f 55/75/44 56/74/43 52/77/45 53/78/46
f 52/77/45 56/74/43 54/71/42 51/70/41
f 48/79/38 40/72/40 55/75/44 53/78/46
f 49/76/32 48/79/38 53/78/46 52/77/45
f 57/80/9 58/81/9 72/82/9 71/83/9 70/84/9 69/85/9 68/84/9 67/83/9 66/82/9 65/81/9 64/80/9 63/86/9 62/87/9 61/88/9 60/87/9 59/86/9
f 73/80/20 75/86/20 76/87/20 77/88/20 78/87/20 79/86/20 80/80/20 81/81/20 82/82/20 83/83/20 84/84/20 85/85/20 86/84/20 87/83/20 88/82/20 74/81/20
f 89/80/9 90/81/9 104/82/9 103/83/9 102/84/9 101/85/9 100/84/9 99/83/9 98/82/9 97/81/9 96/80/9 95/86/9 94/87/9 93/88/9 92/87/9 91/86/9
f 105/80/20 107/86/20 108/87/20 109/88/20 110/87/20 111/86/20 112/80/20 113/81/20 114/82/20 115/83/20 116/84/20 117/85/20 118/84/20 119/83/20 120/82/20 106/81/20
