# Blender 4.2.0
# www.blender.org
mtllib table.mtl
o Cube
v -0.887882 -0.074377 2.238883
v -1.000000 -0.074377 2.126765
v -0.930788 -0.074377 2.230348
v -0.967161 -0.074377 2.206044
v -0.991466 -0.074377 2.169671
v -1.000000 0.074377 2.126765
v -0.887882 0.074377 2.238883
v -0.991466 0.074377 2.169671
v -0.967161 0.074377 2.206044
v -0.930788 0.074377 2.230348
v -1.000000 -0.074377 -2.126765
v -0.887882 -0.074377 -2.238883
v -0.991466 -0.074377 -2.169671
v -0.967161 -0.074377 -2.206044
v -0.930788 -0.074377 -2.230348
v -0.887882 0.074377 -2.238883
v -1.000000 0.074377 -2.126765
v -0.930788 0.074377 -2.230348
v -0.967161 0.074377 -2.206044
v -0.991466 0.074377 -2.169671
v 1.000000 -0.074377 2.126765
v 0.887882 -0.074377 2.238883
v 0.991466 -0.074377 2.169671
v 0.967161 -0.074377 2.206044
v 0.930788 -0.074377 2.230348
v 0.887882 0.074377 2.238883
v 1.000000 0.074377 2.126765
v 0.930788 0.074377 2.230348
v 0.967161 0.074377 2.206044
v 0.991466 0.074377 2.169671
v 0.887882 -0.074377 -2.238883
v 1.000000 -0.074377 -2.126765
v 0.930788 -0.074377 -2.230348
v 0.967161 -0.074377 -2.206044
v 0.991466 -0.074377 -2.169671
v 1.000000 0.074377 -2.126765
v 0.887882 0.074377 -2.238883
v 0.991466 0.074377 -2.169671
v 0.967161 0.074377 -2.206044
v 0.930788 0.074377 -2.230348
vn 0.0980 -0.0000 0.9952
vn -0.0980 -0.0000 0.9952
vn 0.9952 -0.0000 -0.0980
vn 0.9952 -0.0000 0.0980
vn -0.0000 1.0000 -0.0000
vn -0.9952 -0.0000 0.0980
vn -0.9952 -0.0000 -0.0980
vn -0.0980 -0.0000 -0.9952
vn 0.0980 -0.0000 -0.9952
vn -0.3827 -0.0000 0.9239
vn -0.7071 -0.0000 0.7071
vn -0.9239 -0.0000 0.3827
vn -0.3827 -0.0000 -0.9239
vn -0.7071 -0.0000 -0.7071
vn -0.9239 -0.0000 -0.3827
vn 0.9239 -0.0000 -0.3827
vn 0.7071 -0.0000 -0.7071
vn 0.3827 -0.0000 -0.9239
vn 0.3827 -0.0000 0.9239
vn 0.7071 -0.0000 0.7071
vn 0.9239 -0.0000 0.3827
vn -0.0000 -1.0000 -0.0000
vt 0.437288 0.003573
vt 0.416450 0.035986
vt 0.055689 0.032647
vt 0.037691 0.000131
vt 0.470696 0.965305
vt 0.437705 0.944639
vt 0.438582 0.058993
vt 0.471004 0.041386
vt 0.435438 0.953742
vt 0.430945 0.960325
vt 0.424126 0.964650
vt 0.414941 0.967276
vt 0.054501 0.962398
vt 0.045763 0.959950
vt 0.039457 0.954920
vt 0.034617 0.948344
vt 0.032427 0.939185
vt 0.033087 0.055400
vt 0.035655 0.046307
vt 0.039919 0.039513
vt 0.046490 0.034983
vt 0.425359 0.038697
vt 0.431996 0.043187
vt 0.436616 0.049791
vt 0.000131 0.034741
vt 0.000131 0.956934
vt 0.033817 0.994610
vt 0.432975 0.999869
vt 0.026919 0.006624
vt 0.016737 0.014515
vt 0.007758 0.023965
vt 0.023297 0.986866
vt 0.014107 0.977797
vt 0.006425 0.967609
vt 0.463045 0.976070
vt 0.454008 0.985483
vt 0.443783 0.993358
vt 0.447887 0.011347
vt 0.457119 0.020434
vt 0.464771 0.030673
vt 0.471265 0.023386
vt 0.473035 0.014487
vt 0.478076 0.006942
vt 0.485621 0.001901
vt 0.494521 0.000131
vt 0.862851 0.000131
vt 0.871750 0.001901
vt 0.879295 0.006942
vt 0.884336 0.014487
vt 0.886106 0.023386
vt 0.886106 0.905656
vt 0.884336 0.914555
vt 0.879295 0.922100
vt 0.871750 0.927141
vt 0.862851 0.928912
vt 0.494521 0.928912
vt 0.485621 0.927141
vt 0.478076 0.922100
vt 0.473035 0.914555
vt 0.471265 0.905656
s 1
f 22/1/1 26/2/1 7/3/2 1/4/2
f 32/5/3 36/6/3 27/7/4 21/8/4
f 36/6/5 38/9/5 39/10/5 40/11/5 37/12/5 16/13/5 18/14/5 19/15/5 20/16/5 17/17/5 6/18/5 8/19/5 9/20/5 10/21/5 7/3/5 26/2/5 28/22/5 29/23/5 30/24/5 27/7/5
f 2/25/6 6/18/6 17/17/7 11/26/7
f 12/27/8 16/13/8 37/12/9 31/28/9
f 1/4/2 7/3/2 10/21/10 3/29/10
f 3/29/10 10/21/10 9/20/11 4/30/11
f 4/30/11 9/20/11 8/19/12 5/31/12
f 5/31/12 8/19/12 6/18/6 2/25/6
f 16/13/8 12/27/8 15/32/13 18/14/13
f 18/14/13 15/32/13 14/33/14 19/15/14
f 19/15/14 14/33/14 13/34/15 20/16/15
f 20/16/15 13/34/15 11/26/7 17/17/7
f 36/6/3 32/5/3 35/35/16 38/9/16
f 38/9/16 35/35/16 34/36/17 39/10/17
f 39/10/17 34/36/17 33/37/18 40/11/18
f 40/11/18 33/37/18 31/28/9 37/12/9
f 26/2/1 22/1/1 25/38/19 28/22/19
f 28/22/19 25/38/19 24/39/20 29/23/20
f 29/23/20 24/39/20 23/40/21 30/24/21
f 30/24/21 23/40/21 21/8/4 27/7/4
f 11/41/22 13/42/22 14/43/22 15/44/22 12/45/22 31/46/22 33/47/22 34/48/22 35/49/22 32/50/22 21/51/22 23/52/22 24/53/22 25/54/22 22/55/22 1/56/22 3/57/22 4/58/22 5/59/22 2/60/22
